<svg width="628" height="129" viewBox="0 0 628 129" fill="none" xmlns="http://www.w3.org/2000/svg">
<path d="M49.552 79.056C49.552 83.4933 48.4427 87.2053 46.224 90.192C44.0053 93.1787 40.848 95.44 36.752 96.976C32.656 98.512 27.792 99.28 22.16 99.28C17.3813 99.28 13.2427 98.896 9.744 98.128C6.33067 97.36 3.30133 96.2933 0.656 94.928V84.688C3.38667 86.0533 6.672 87.3333 10.512 88.528C14.4373 89.6373 18.4053 90.192 22.416 90.192C28.1333 90.192 32.272 89.296 34.832 87.504C37.392 85.6267 38.672 83.152 38.672 80.08C38.672 78.3733 38.2027 76.8373 37.264 75.472C36.3253 74.1067 34.6187 72.7413 32.144 71.376C29.7547 70.0107 26.2987 68.4747 21.776 66.768C17.3387 65.0613 13.5413 63.3547 10.384 61.648C7.22667 59.9413 4.79467 57.8933 3.088 55.504C1.38133 53.1147 0.528 50.0427 0.528 46.288C0.528 40.4853 2.87467 36.0053 7.568 32.848C12.3467 29.6907 18.576 28.112 26.256 28.112C30.4373 28.112 34.32 28.5387 37.904 29.392C41.5733 30.16 44.9867 31.2693 48.144 32.72L44.304 41.68C42.4267 40.8267 40.4213 40.1013 38.288 39.504C36.24 38.8213 34.1493 38.3093 32.016 37.968C29.8827 37.5413 27.7067 37.328 25.488 37.328C20.88 37.328 17.3387 38.096 14.864 39.632C12.4747 41.0827 11.28 43.088 11.28 45.648C11.28 47.5253 11.8347 49.1467 12.944 50.512C14.0533 51.792 15.888 53.072 18.448 54.352C21.0933 55.5467 24.592 56.9973 28.944 58.704C33.296 60.3253 37.008 61.9893 40.08 63.696C43.152 65.4027 45.4987 67.4933 47.12 69.968C48.7413 72.3573 49.552 75.3867 49.552 79.056ZM123.599 29.392V98H114.383L112.719 88.912H112.207C110.756 91.3013 108.879 93.264 106.575 94.8C104.271 96.336 101.754 97.4453 99.023 98.128C96.2923 98.896 93.4337 99.28 90.447 99.28C84.9857 99.28 80.3777 98.4267 76.623 96.72C72.9537 94.928 70.1803 92.1973 68.303 88.528C66.4257 84.8587 65.487 80.1227 65.487 74.32V29.392H76.879V73.552C76.879 79.0133 78.1163 83.1093 80.591 85.84C83.0657 88.5707 86.9057 89.936 92.111 89.936C97.231 89.936 101.242 88.9973 104.143 87.12C107.13 85.1573 109.22 82.3413 110.415 78.672C111.695 74.9173 112.335 70.3947 112.335 65.104V29.392H123.599ZM178.404 28.112C186.596 28.112 192.783 30.1173 196.964 34.128C201.145 38.0533 203.236 44.4533 203.236 53.328V98H192.1V54.096C192.1 48.5493 190.863 44.4107 188.388 41.68C185.913 38.9493 182.031 37.584 176.74 37.584C169.145 37.584 163.897 39.7173 160.996 43.984C158.095 48.2507 156.644 54.3947 156.644 62.416V98H145.38V29.392H154.468L156.132 38.736H156.772C158.308 36.3467 160.185 34.384 162.404 32.848C164.708 31.2267 167.225 30.032 169.956 29.264C172.687 28.496 175.503 28.112 178.404 28.112ZM248.825 99.28C240.292 99.28 233.465 96.336 228.345 90.448C223.225 84.4747 220.665 75.6 220.665 63.824C220.665 52.048 223.225 43.1733 228.345 37.2C233.55 31.1413 240.42 28.112 248.953 28.112C252.537 28.112 255.652 28.5813 258.297 29.52C260.942 30.3733 263.246 31.568 265.209 33.104C267.172 34.64 268.836 36.3467 270.201 38.224H270.969C270.884 37.1147 270.713 35.4933 270.457 33.36C270.286 31.1413 270.201 29.392 270.201 28.112V0.719994H281.465V98H272.377L270.713 88.784H270.201C268.836 90.7467 267.172 92.5387 265.209 94.16C263.246 95.696 260.9 96.9333 258.169 97.872C255.524 98.8107 252.409 99.28 248.825 99.28ZM250.617 89.936C257.87 89.936 262.948 87.9733 265.849 84.048C268.836 80.0373 270.329 74.0213 270.329 66V63.952C270.329 55.4187 268.921 48.8907 266.105 44.368C263.289 39.76 258.084 37.456 250.489 37.456C244.43 37.456 239.865 39.888 236.793 44.752C233.806 49.5307 232.313 55.9733 232.313 64.08C232.313 72.272 233.806 78.6293 236.793 83.152C239.865 87.6747 244.473 89.936 250.617 89.936ZM329.239 28.24C337.602 28.24 343.788 30.0747 347.799 33.744C351.81 37.4133 353.815 43.2587 353.815 51.28V98H345.623L343.447 88.272H342.935C340.972 90.7467 338.924 92.8373 336.791 94.544C334.743 96.1653 332.354 97.36 329.623 98.128C326.978 98.896 323.735 99.28 319.895 99.28C315.799 99.28 312.087 98.5547 308.759 97.104C305.516 95.6533 302.956 93.4347 301.079 90.448C299.202 87.376 298.263 83.536 298.263 78.928C298.263 72.1013 300.951 66.8533 306.327 63.184C311.703 59.4293 319.98 57.3813 331.159 57.04L342.807 56.656V52.56C342.807 46.8427 341.57 42.8747 339.095 40.656C336.62 38.4373 333.122 37.328 328.599 37.328C325.015 37.328 321.602 37.8827 318.359 38.992C315.116 40.016 312.087 41.2107 309.271 42.576L305.815 34.128C308.802 32.5067 312.343 31.1413 316.439 30.032C320.535 28.8373 324.802 28.24 329.239 28.24ZM332.567 64.848C324.034 65.1893 318.103 66.5547 314.775 68.944C311.532 71.3333 309.911 74.704 309.911 79.056C309.911 82.896 311.063 85.712 313.367 87.504C315.756 89.296 318.786 90.192 322.455 90.192C328.258 90.192 333.079 88.6133 336.919 85.456C340.759 82.2133 342.679 77.264 342.679 70.608V64.464L332.567 64.848ZM364.253 29.392H376.285L391.133 68.432C391.986 70.736 392.754 72.9547 393.437 75.088C394.205 77.2213 394.888 79.312 395.485 81.36C396.082 83.3227 396.552 85.2427 396.893 87.12H397.405C397.917 84.9867 398.728 82.2133 399.837 78.8C400.946 75.3013 402.098 71.8027 403.293 68.304L417.245 29.392H429.405L399.837 107.472C398.216 111.739 396.296 115.451 394.077 118.608C391.944 121.851 389.298 124.325 386.141 126.032C383.069 127.824 379.314 128.72 374.877 128.72C372.829 128.72 371.037 128.592 369.501 128.336C367.965 128.165 366.642 127.952 365.533 127.696V118.736C366.472 118.907 367.581 119.077 368.861 119.248C370.226 119.419 371.634 119.504 373.085 119.504C375.73 119.504 377.992 118.992 379.869 117.968C381.832 117.029 383.496 115.621 384.861 113.744C386.226 111.952 387.378 109.819 388.317 107.344L391.901 98.256L364.253 29.392ZM451.519 29.392V98H440.255V29.392H451.519ZM446.015 3.66399C447.722 3.66399 449.215 4.26133 450.495 5.45599C451.86 6.56533 452.543 8.35733 452.543 10.832C452.543 13.2213 451.86 15.0133 450.495 16.208C449.215 17.4027 447.722 18 446.015 18C444.138 18 442.559 17.4027 441.279 16.208C439.999 15.0133 439.359 13.2213 439.359 10.832C439.359 8.35733 439.999 6.56533 441.279 5.45599C442.559 4.26133 444.138 3.66399 446.015 3.66399ZM517.927 79.056C517.927 83.4933 516.818 87.2053 514.599 90.192C512.38 93.1787 509.223 95.44 505.127 96.976C501.031 98.512 496.167 99.28 490.535 99.28C485.756 99.28 481.618 98.896 478.119 98.128C474.706 97.36 471.676 96.2933 469.031 94.928V84.688C471.762 86.0533 475.047 87.3333 478.887 88.528C482.812 89.6373 486.78 90.192 490.791 90.192C496.508 90.192 500.647 89.296 503.207 87.504C505.767 85.6267 507.047 83.152 507.047 80.08C507.047 78.3733 506.578 76.8373 505.639 75.472C504.7 74.1067 502.994 72.7413 500.519 71.376C498.13 70.0107 494.674 68.4747 490.151 66.768C485.714 65.0613 481.916 63.3547 478.759 61.648C475.602 59.9413 473.17 57.8933 471.463 55.504C469.756 53.1147 468.903 50.0427 468.903 46.288C468.903 40.4853 471.25 36.0053 475.943 32.848C480.722 29.6907 486.951 28.112 494.631 28.112C498.812 28.112 502.695 28.5387 506.279 29.392C509.948 30.16 513.362 31.2693 516.519 32.72L512.679 41.68C510.802 40.8267 508.796 40.1013 506.663 39.504C504.615 38.8213 502.524 38.3093 500.391 37.968C498.258 37.5413 496.082 37.328 493.863 37.328C489.255 37.328 485.714 38.096 483.239 39.632C480.85 41.0827 479.655 43.088 479.655 45.648C479.655 47.5253 480.21 49.1467 481.319 50.512C482.428 51.792 484.263 53.072 486.823 54.352C489.468 55.5467 492.967 56.9973 497.319 58.704C501.671 60.3253 505.383 61.9893 508.455 63.696C511.527 65.4027 513.874 67.4933 515.495 69.968C517.116 72.3573 517.927 75.3867 517.927 79.056ZM545.894 29.264C545.894 30.8853 545.809 32.5493 545.638 34.256C545.553 35.9627 545.425 37.4987 545.254 38.864H546.022C547.473 36.4747 549.307 34.512 551.526 32.976C553.745 31.44 556.219 30.288 558.95 29.52C561.681 28.6667 564.497 28.24 567.398 28.24C572.945 28.24 577.553 29.136 581.222 30.928C584.977 32.6347 587.793 35.3227 589.67 38.992C591.547 42.6613 592.486 47.44 592.486 53.328V98H581.35V54.096C581.35 48.5493 580.113 44.4107 577.638 41.68C575.163 38.9493 571.281 37.584 565.99 37.584C560.87 37.584 556.859 38.5653 553.958 40.528C551.057 42.4053 548.966 45.2213 547.686 48.976C546.491 52.6453 545.894 57.168 545.894 62.544V98H534.63V0.719994H545.894V29.264ZM612.091 91.088C612.091 87.9307 612.859 85.712 614.395 84.432C615.931 83.152 617.766 82.512 619.899 82.512C622.118 82.512 623.995 83.152 625.531 84.432C627.152 85.712 627.963 87.9307 627.963 91.088C627.963 94.16 627.152 96.3787 625.531 97.744C623.995 99.1093 622.118 99.792 619.899 99.792C617.766 99.792 615.931 99.1093 614.395 97.744C612.859 96.3787 612.091 94.16 612.091 91.088Z" fill="white"/>
</svg>
